Color
C

Release Date
October 14, 1994

Language
Hindi

Genre
Action  /  Musical

Producer
Roman Sippy

Executive Producer / Co-Producer
Punkej Kharbanda

Director
Raj N Sippy

Star Cast
Sanjay Dutt...... Vijay
Akshay Kumar...... Amar
Kanchan...... Radha
Hira...... Gita
Kiran Kumar...... Rajeshwar/Lankeshwar
Gulshan Grover...... Niranjan
Mukesh Khanna...... Agarwal Seth
Farheen...... Bijli
Paintal
Mac Mohan
Ghanshyam
Neelam Mehra
Navneet Nishan...... Yasmin
Satyen Kappu
Ram Mohan
Vikas Anand
Shashi Kiran
Madhu Malhotra
Razzak Khan
Shamshuddin
Sudhir Dalvi

Cinematography
S Pappu

Choreography
Chinni Prakash
Rekha Chinni Prakash
Saroj Khan

Action
Moses
Sham Kaushal
Amin Gani

Art
R Verman

Editor
Ashok Honda

Screenplay
Sachin Bhowmik

Dialogue
Anwar Khan

Media Relations
Ajit Ghosh

Story / Writer
Sachin Bhowmik



Ripper                           : Rahul (XMR)
Complete name                    : Amaanat 1994 DvDrip x264 ~ Musical | Action ~ [RdY]
Format                           : Matroska
File size                        : 1.35 GiB
Duration                         : 2h 38mn
Overall bit rate                 : 1 212 Kbps
Encoded date                     : UTC 2011-09-28 06:14:24


Video
ID                               : 1
Format                           : AVC
Format/Info                      : Advanced Video Codec
Format profile                   : High@L3.0
Format settings, CABAC           : Yes
Format settings, ReFrames        : 4 frames
Muxing mode                      : Header stripping
Codec ID                         : V_MPEG4/ISO/AVC
Duration                         : 2h 38mn
Bit rate                         : 987 Kbps
Width                            : 720 pixels
Height                           : 384 pixels
Display aspect ratio             : 1.875
Frame rate                       : 23.976 fps
Color space                      : YUV
Chroma subsampling               : 4.2.0
Bit depth                        : 8 bits
Scan type                        : Progressive
Bits/(Pixel*Frame)               : 0.149
Stream size                      : 1.07 GiB (80%)
Writing library                  : x264 core 116 r2074 2641b9e


Audio
ID                               : 2
Format                           : AC-3
Format/Info                      : Audio Coding 3
Mode extension                   : CM (complete main)
Muxing mode                      : Header stripping
Codec ID                         : A_AC3
Duration                         : 2h 38mn
Bit rate mode                    : Constant
Bit rate                         : 224 Kbps
Channel(s)                       : 6 channels
Channel positions                : Front: L C R, Side: L R, LFE
Sampling rate                    : 48.0 KHz
Bit depth                        : 16 bits
Compression mode                 : Lossy
Stream size                      : 255 MiB (18%)